<?xml version="1.0" encoding="utf-8"?>
<!-- Generator: Adobe Illustrator 16.0.0, SVG Export Plug-In . SVG Version: 6.00 Build 0)  -->
<!DOCTYPE svg PUBLIC "-//W3C//DTD SVG 1.1//EN" "http://www.w3.org/Graphics/SVG/1.1/DTD/svg11.dtd">
<svg version="1.1" xmlns="http://www.w3.org/2000/svg" xmlns:xlink="http://www.w3.org/1999/xlink" x="0px" y="0px" width="185px"
	 height="185px" viewBox="397.501 -22.833 185 185" enable-background="new 397.501 -22.833 185 185" xml:space="preserve">
<g id="Layer_1">
	<rect x="331.667" y="-65.833" fill="#57068C" width="339" height="322"/>
	<path fill="#FFFFFF" d="M563.251,6.521h-73h-0.5h-73v17.917h7.083v108.375h38v-65h0.057c-0.032-0.552-0.057-1.106-0.057-1.667
		c0-15.096,12.313-27.333,27.5-27.333s27.5,12.237,27.5,27.333c0,0.561-0.021,1.115-0.059,1.667h0.059v65h39V24.437h7.416
		L563.251,6.521L563.251,6.521z"/>
</g>
<g id="Layer_2">
	<g>
		<path fill="#FFFFFF" d="M-239.614,135.334V50.021h22.441c8.828,0,15.683,1.816,20.566,5.449c4.882,3.633,7.324,9.102,7.324,16.406
			c0,4.767-1.163,8.829-3.486,12.188c-2.325,3.36-5.616,5.606-9.873,6.738l-0.059,0.352c5.039,0.665,9.277,2.979,12.715,6.943
			c3.437,3.965,5.156,8.546,5.156,13.74c0,7.462-2.413,13.242-7.236,17.344c-4.825,4.102-11.202,6.152-19.131,6.152H-239.614z
			 M-236.45,90.041h21.563c7.383-0.117,12.958-1.699,16.729-4.746c3.769-3.047,5.654-7.597,5.654-13.652
			c0-6.094-2.08-10.693-6.24-13.799s-10.303-4.658-18.428-4.658h-19.277V90.041z M-236.45,93.205v38.965h25.254
			c7.187,0,12.851-1.777,16.992-5.332c4.14-3.554,6.211-8.516,6.211-14.883c0-5.625-2.09-10.156-6.27-13.594
			c-4.18-3.437-9.825-5.156-16.934-5.156H-236.45z"/>
		<path fill="#FFFFFF" d="M-146.978,136.564c-7.461,0-13.76-2.891-18.896-8.672c-5.137-5.78-7.705-13.066-7.705-21.855v-3.75
			c0-9.179,2.549-16.729,7.646-22.646s11.514-8.877,19.248-8.877c7.031,0,12.636,2.314,16.816,6.943
			c4.179,4.629,6.27,10.948,6.27,18.955v4.863h-46.816v0.762v3.75c0,7.734,2.187,14.229,6.563,19.482
			c4.375,5.254,10,7.881,16.875,7.881c3.789,0,7.431-0.703,10.928-2.109c3.496-1.406,6.337-3.281,8.525-5.625l1.699,2.461
			c-2.227,2.461-5.098,4.482-8.613,6.064S-142.134,136.564-146.978,136.564z M-146.685,73.928c-6.563,0-11.944,2.276-16.143,6.826
			c-4.2,4.552-6.573,10.304-7.119,17.256l0.176,0.352h43.008v-1.934c0-6.522-1.778-11.903-5.332-16.143
			C-135.65,76.048-140.513,73.928-146.685,73.928z"/>
		<path fill="#FFFFFF" d="M-101.743,54.826v17.109h15.586v3.223h-15.586v43.828c0,5.195,0.879,8.897,2.637,11.104
			c1.758,2.207,4.082,3.311,6.973,3.311c1.055,0,1.992-0.038,2.813-0.117c0.82-0.078,1.953-0.214,3.398-0.41l0.586,2.871
			c-0.977,0.313-1.992,0.527-3.047,0.645s-2.247,0.176-3.574,0.176c-4.258,0-7.491-1.386-9.697-4.16
			c-2.208-2.773-3.311-7.245-3.311-13.418V75.158h-11.719v-3.223h11.719V54.826H-101.743z"/>
		<path fill="#FFFFFF" d="M-64.653,54.826v17.109h15.586v3.223h-15.586v43.828c0,5.195,0.879,8.897,2.637,11.104
			c1.758,2.207,4.081,3.311,6.973,3.311c1.055,0,1.992-0.038,2.813-0.117c0.82-0.078,1.953-0.214,3.398-0.41l0.586,2.871
			c-0.977,0.313-1.992,0.527-3.047,0.645s-2.247,0.176-3.574,0.176c-4.258,0-7.491-1.386-9.697-4.16
			c-2.208-2.773-3.311-7.245-3.311-13.418V75.158h-11.719v-3.223h11.719V54.826H-64.653z"/>
		<path fill="#FFFFFF" d="M-11.919,136.564c-7.462,0-13.761-2.891-18.896-8.672c-5.137-5.78-7.705-13.066-7.705-21.855v-3.75
			c0-9.179,2.549-16.729,7.646-22.646s11.514-8.877,19.248-8.877c7.031,0,12.636,2.314,16.816,6.943
			c4.18,4.629,6.27,10.948,6.27,18.955v4.863h-46.816v0.762v3.75c0,7.734,2.188,14.229,6.563,19.482
			c4.374,5.254,9.999,7.881,16.875,7.881c3.788,0,7.432-0.703,10.928-2.109c3.495-1.406,6.337-3.281,8.525-5.625l1.699,2.461
			c-2.227,2.461-5.098,4.482-8.613,6.064S-7.076,136.564-11.919,136.564z M-11.626,73.928c-6.563,0-11.944,2.276-16.143,6.826
			c-4.199,4.552-6.572,10.304-7.119,17.256l0.176,0.352H8.296v-1.934c0-6.522-1.778-11.903-5.332-16.143
			C-0.591,76.048-5.454,73.928-11.626,73.928z"/>
		<path fill="#FFFFFF" d="M54.702,74.221l-4.102-0.352c-5.664,0-10.264,1.827-13.799,5.479c-3.536,3.653-5.83,8.467-6.885,14.443
			v41.543h-3.164V71.936h2.578l0.586,11.016v2.168c1.758-4.53,4.374-8.057,7.852-10.576c3.477-2.52,7.754-3.779,12.832-3.779
			c0.898,0,1.729,0.069,2.49,0.205c0.762,0.138,1.415,0.284,1.963,0.439L54.702,74.221z"/>
		<path fill="#FFFFFF" stroke="#FFFFFF" stroke-width="2" stroke-miterlimit="10" d="M133.745,135.334h-17.051L82.241,77.033
			l-0.352,0.059v58.242H64.78V50.021H81.89l34.453,58.242l0.352-0.059V50.021h17.051V135.334z"/>
		<path fill="#FFFFFF" stroke="#FFFFFF" stroke-width="2" stroke-miterlimit="10" d="M179.448,89.338h0.352l18.633-39.316h18.75
			l-29.297,55.313v30h-17.051v-30.879l-28.77-54.434h18.75L179.448,89.338z"/>
		<path fill="#FFFFFF" stroke="#FFFFFF" stroke-width="2" stroke-miterlimit="10" d="M293.185,50.021v56.602
			c0,9.571-3.164,16.954-9.492,22.148c-6.328,5.195-14.61,7.793-24.844,7.793c-10.195,0-18.428-2.598-24.697-7.793
			c-6.27-5.194-9.404-12.577-9.404-22.148V50.021h17.168v56.557c0,5.62,1.503,9.826,4.512,12.617
			c3.008,2.79,7.148,4.186,12.422,4.186c5.352,0,9.551-1.385,12.598-4.156s4.57-6.986,4.57-12.646V50.021H293.185z"/>
	</g>
</g>
</svg>
