<?xml version="1.0" encoding="utf-8"?>
<!-- Generator: Adobe Illustrator 16.0.0, SVG Export Plug-In . SVG Version: 6.00 Build 0)  -->
<!DOCTYPE svg PUBLIC "-//W3C//DTD SVG 1.1//EN" "http://www.w3.org/Graphics/SVG/1.1/DTD/svg11.dtd">
<svg version="1.1" xmlns="http://www.w3.org/2000/svg" xmlns:xlink="http://www.w3.org/1999/xlink" x="0px" y="0px"
	 width="708.667px" height="139.334px" viewBox="-140.333 0 708.667 139.334" enable-background="new -140.333 0 708.667 139.334"
	 xml:space="preserve">
<g id="Layer_1">
	<path fill="#EFEDEA" d="M565.334,9.042h-73h-0.5h-73v17.917h7.083v108.375h38v-65h0.057c-0.032-0.552-0.057-1.106-0.057-1.667
		c0-15.096,12.313-27.333,27.5-27.333s27.5,12.237,27.5,27.333c0,0.561-0.021,1.115-0.059,1.667h0.059v65h39V26.958h7.416
		L565.334,9.042L565.334,9.042z"/>
</g>
<g id="Layer_2">
	<g>
		<path fill="#FFFFFF" d="M-138.142,135.334V50.021h24.902c8.867,0,15.771,1.867,20.713,5.6c4.941,3.732,7.412,9.351,7.412,16.854
			c0,4.378-1.241,8.188-3.721,11.432c-2.481,3.245-5.85,5.492-10.107,6.742c5.195,0.938,9.414,3.378,12.656,7.321
			c3.242,3.943,4.863,8.492,4.863,13.645c0,7.613-2.471,13.471-7.412,17.57c-4.942,4.1-11.553,6.148-19.834,6.148H-138.142z
			 M-131.169,88.283h19.629c6.171,0,10.947-1.356,14.326-4.072c3.378-2.714,5.068-6.709,5.068-11.982
			c0-5.391-1.797-9.443-5.391-12.158c-3.594-2.714-8.829-4.072-15.703-4.072h-17.93V88.283z M-131.169,94.26v35.098h22.5
			c6.289,0,11.23-1.547,14.824-4.643c3.593-3.095,5.391-7.426,5.391-12.994c0-5.1-1.631-9.285-4.893-12.556
			c-3.262-3.271-7.998-4.905-14.209-4.905H-131.169z"/>
		<path fill="#FFFFFF" d="M-41.931,136.564c-7.93,0-14.522-2.93-19.775-8.789c-5.254-5.859-7.881-13.28-7.881-22.266v-3.223
			c0-9.062,2.607-16.582,7.822-22.559s11.533-8.965,18.955-8.965c7.773,0,13.887,2.461,18.34,7.383s6.68,11.484,6.68,19.688v5.977
			h-44.766v1.695c0,7.133,1.894,13.097,5.684,17.891c3.789,4.795,8.769,7.191,14.941,7.191c4.375,0,8.105-0.605,11.191-1.816
			c3.085-1.21,5.722-2.949,7.91-5.215l2.988,4.805c-2.383,2.511-5.401,4.504-9.053,5.984
			C-32.546,135.824-36.892,136.564-41.931,136.564z M-42.81,76.74c-5.196,0-9.551,1.978-13.066,5.931
			c-3.516,3.954-5.566,8.911-6.152,14.871l0.117,0.292h37.148v-1.753c0-5.492-1.622-10.09-4.863-13.79
			C-32.869,78.591-37.263,76.74-42.81,76.74z"/>
		<path fill="#FFFFFF" d="M7.112,55.705v16.23h13.945v5.742H7.112v41.309c0,4.141,0.751,7.081,2.256,8.818
			c1.503,1.738,3.505,2.607,6.006,2.607c1.132,0,2.236-0.049,3.311-0.146c1.074-0.097,2.314-0.264,3.721-0.498l1.055,5.215
			c-1.172,0.507-2.598,0.898-4.277,1.172c-1.68,0.272-3.36,0.41-5.039,0.41c-4.453,0-7.92-1.406-10.4-4.219
			c-2.481-2.813-3.721-7.266-3.721-13.359V77.678h-10.957v-5.742H0.022v-16.23H7.112z"/>
		<path fill="#FFFFFF" d="M46.956,55.705v16.23h13.945v5.742H46.956v41.309c0,4.141,0.752,7.081,2.256,8.818
			c1.503,1.738,3.506,2.607,6.006,2.607c1.133,0,2.235-0.049,3.311-0.146c1.074-0.097,2.314-0.264,3.721-0.498l1.055,5.215
			c-1.172,0.507-2.599,0.898-4.277,1.172c-1.68,0.272-3.36,0.41-5.039,0.41c-4.453,0-7.92-1.406-10.4-4.219
			c-2.481-2.813-3.721-7.266-3.721-13.359V77.678H28.909v-5.742h10.957v-16.23H46.956z"/>
		<path fill="#FFFFFF" d="M99.573,136.564c-7.931,0-14.522-2.93-19.775-8.789c-5.254-5.859-7.881-13.28-7.881-22.266v-3.223
			c0-9.062,2.607-16.582,7.822-22.559s11.533-8.965,18.955-8.965c7.772,0,13.887,2.461,18.34,7.383s6.68,11.484,6.68,19.688v5.977
			H78.948v1.695c0,7.133,1.895,13.097,5.684,17.891c3.788,4.795,8.769,7.191,14.941,7.191c4.374,0,8.105-0.605,11.191-1.816
			c3.085-1.21,5.722-2.949,7.91-5.215l2.988,4.805c-2.383,2.511-5.4,4.504-9.053,5.984
			C108.957,135.824,104.612,136.564,99.573,136.564z M98.694,76.74c-5.195,0-9.551,1.978-13.066,5.931
			c-3.516,3.954-5.566,8.911-6.152,14.871l0.117,0.292h37.148v-1.753c0-5.492-1.621-10.09-4.863-13.79
			C108.635,78.591,104.24,76.74,98.694,76.74z"/>
		<path fill="#FFFFFF" d="M166.78,77.971l-5.215-0.352c-4.415,0-8.037,1.241-10.869,3.721c-2.833,2.481-4.854,5.889-6.064,10.225
			v43.77h-7.031V71.936h6.152l0.879,10.547v0.703c1.836-3.905,4.297-6.952,7.383-9.141c3.085-2.187,6.758-3.281,11.016-3.281
			c0.898,0,1.767,0.069,2.607,0.205c0.84,0.138,1.532,0.284,2.08,0.439L166.78,77.971z"/>
		<path fill="#FFFFFF" stroke="#FFFFFF" stroke-width="2" stroke-miterlimit="10" d="M246.116,135.334h-17.051l-34.453-58.301
			l-0.352,0.059v58.242h-17.109V50.021h17.109l34.453,58.242l0.352-0.059V50.021h17.051V135.334z"/>
		<path fill="#FFFFFF" stroke="#FFFFFF" stroke-width="2" stroke-miterlimit="10" d="M291.819,89.338h0.352l18.633-39.316h18.75
			l-29.297,55.313v30h-17.051v-30.879l-28.77-54.434h18.75L291.819,89.338z"/>
		<path fill="#FFFFFF" stroke="#FFFFFF" stroke-width="2" stroke-miterlimit="10" d="M405.556,50.021v56.602
			c0,9.571-3.164,16.954-9.492,22.148c-6.328,5.195-14.61,7.793-24.844,7.793c-10.195,0-18.428-2.598-24.697-7.793
			c-6.27-5.194-9.404-12.577-9.404-22.148V50.021h17.168v56.557c0,5.62,1.503,9.826,4.512,12.617
			c3.008,2.79,7.148,4.186,12.422,4.186c5.352,0,9.551-1.385,12.598-4.156s4.57-6.986,4.57-12.646V50.021H405.556z"/>
	</g>
</g>
</svg>
